<?xml version="1.0" encoding="utf-8"?>
<!-- Generator: Adobe Illustrator 26.1.0, SVG Export Plug-In . SVG Version: 6.00 Build 0)  -->
<svg version="1.1" id="Layer_1" xmlns="http://www.w3.org/2000/svg" xmlns:xlink="http://www.w3.org/1999/xlink" x="0px" y="0px"
	 viewBox="0 0 504 288" style="enable-background:new 0 0 504 288;" xml:space="preserve">
<style type="text/css">
	.st0{clip-path:url(#SVGID_00000002371212128564178590000014053550397587720094_);fill:#CCCCCC;}
</style>
<g>
	<g>
		<defs>
			<rect id="SVGID_1_" width="504" height="288"/>
		</defs>
		<use xlink:href="#SVGID_1_"  style="overflow:visible;fill:#FFFFFF;"/>
		<clipPath id="SVGID_00000003809994295213412700000010692829507954802357_">
			<use xlink:href="#SVGID_1_"  style="overflow:visible;"/>
		</clipPath>
		<path style="clip-path:url(#SVGID_00000003809994295213412700000010692829507954802357_);fill:#CCCCCC;" d="M433.65,138.52
			l-0.08,0.03L402,181.06l-63.04,21.23l-0.08,0.03l-31.56,42.51l-63.04,21.23l-0.08,0.03l-31.56,42.51l-42.39,14.27h1.27
			l41.45-13.96l0.08-0.03l31.57-42.51l63.04-21.23l0.08-0.03l31.57-42.51l63.04-21.23l0.08-0.03l31.56-42.51l63.04-21.23l0.08-0.03
			l20.77-27.97v-0.86l-21.19,28.54L433.65,138.52z M425.76,133.2l-0.08,0.03l-31.56,42.51l-63.04,21.23l-0.08,0.03l-31.56,42.51
			l-63.04,21.23l-0.08,0.03l-31.56,42.51l-58.17,19.59h1.27l57.23-19.27l0.08-0.03l31.56-42.51l63.04-21.23l0.08-0.03l31.56-42.51
			l63.04-21.23l0.08-0.03l31.56-42.51l63.04-21.23l0.08-0.03l28.66-38.6V72.8l-29.08,39.17L425.76,133.2z M457.24,26.95
			l-31.56,42.51l-63.04,21.23l-0.08,0.03l-31.56,42.51l-63.04,21.23l-0.08,0.03L236.29,197l-63.05,21.23l-0.08,0.03l-31.56,42.51
			L78.55,282l-0.08,0.03l-30.32,40.84h0.64l30.11-40.56l63.04-21.23l0.08-0.03l31.56-42.51l63.04-21.23l0.08-0.03l31.56-42.51
			l63.05-21.23l0.08-0.03L362.97,91l63.04-21.23l0.08-0.03l31.56-42.51l60.23-20.28V6.53l-60.56,20.39L457.24,26.95z M465.13,32.26
			l-31.56,42.51L370.52,96l-0.08,0.03l-31.56,42.51l-63.05,21.23l-0.08,0.03l-31.56,42.51l-63.05,21.23l-0.08,0.03l-31.56,42.51
			l-63.05,21.23l-0.08,0.03l-26.38,35.53h0.64l26.17-35.24l63.04-21.23l0.08-0.03l31.56-42.51l63.05-21.23l0.08-0.03l31.56-42.51
			l63.04-21.23l0.08-0.03l31.57-42.51l63.04-21.23l0.08-0.03l31.57-42.51l52.33-17.62V14.5l-52.67,17.74L465.13,32.26z
			 M504.59,186.37l-31.56,42.51l-63.04,21.23l-0.08,0.03l-31.56,42.51l-63.04,21.23l-0.08,0.03l-6.65,8.96h0.64l6.44-8.67
			l63.04-21.23l0.08-0.03l31.56-42.51l63.04-21.23l0.08-0.03l31.56-42.51l12.88-4.34v-0.43l-13.22,4.45L504.59,186.37z
			 M512.48,191.69l-31.56,42.51l-63.04,21.23l-0.08,0.03l-31.56,42.51l-63.04,21.23l-0.08,0.03l-2.71,3.64h0.64l2.49-3.36
			l63.04-21.23l0.08-0.03l31.56-42.51l63.05-21.23l0.08-0.03l31.56-42.51l4.99-1.68v-0.43l-5.33,1.79L512.48,191.69z M449.43,149.14
			l-0.08,0.03l-31.56,42.51l-63.04,21.23l-0.08,0.03l-31.56,42.51l-63.04,21.23l-0.08,0.03l-31.56,42.51l-10.82,3.64h1.27l9.89-3.33
			l0.08-0.03L260.39,277l63.04-21.23l0.08-0.03l31.56-42.51L418.12,192l0.08-0.03l31.56-42.51l63.04-21.23l0.08-0.03l4.99-6.72
			v-0.86l-5.41,7.29L449.43,149.14z M441.54,143.83l-0.08,0.03l-31.56,42.51l-63.04,21.23l-0.08,0.03l-31.56,42.51l-63.04,21.23
			l-0.08,0.03l-31.56,42.51l-26.6,8.96h1.27l25.67-8.64l0.08-0.03l31.56-42.51l63.04-21.23l0.08-0.03l31.56-42.51l63.04-21.23
			l0.08-0.03l31.56-42.51l63.04-21.23l0.08-0.03l12.88-17.35v-0.86l-13.3,17.92L441.54,143.83z M496.7,53.52l-31.56,42.51
			l-63.04,21.23l-0.08,0.03l-31.56,42.51l-63.04,21.23l-0.08,0.03l-31.56,42.51L212.7,244.8l-0.08,0.03l-31.56,42.51l-63.04,21.23
			l-0.08,0.03l-10.6,14.27h0.64l10.38-13.99l63.04-21.23l0.08-0.03l31.56-42.51l63.04-21.23l0.08-0.03l31.56-42.51l63.04-21.23
			l0.08-0.03l31.56-42.51l63.04-21.23l0.08-0.03l31.56-42.51l20.77-6.99v-0.43l-21.11,7.11L496.7,53.52z M512.48,64.15l-31.56,42.51
			l-63.04,21.23l-0.08,0.03l-31.56,42.51l-63.04,21.23l-0.08,0.03l-31.57,42.51l-63.04,21.23l-0.08,0.03l-31.56,42.51l-63.04,21.23
			l-0.08,0.03l-2.71,3.64h0.64l2.49-3.36l63.04-21.23l0.08-0.03l31.56-42.51l63.04-21.23l0.08-0.03l31.57-42.51l63.04-21.23
			l0.08-0.03l31.56-42.51l63.05-21.23l0.08-0.03l31.56-42.51l4.99-1.68v-0.43l-5.33,1.79L512.48,64.15z M504.59,58.83l-31.56,42.51
			l-63.04,21.23l-0.08,0.03l-31.56,42.51l-63.04,21.23l-0.08,0.03l-31.56,42.51l-63.04,21.23l-0.08,0.03l-31.56,42.51l-63.04,21.23
			l-0.08,0.03l-6.65,8.96h0.64l6.44-8.67l63.04-21.23l0.08-0.03l31.56-42.51l63.04-21.23l0.08-0.03l31.56-42.51l63.04-21.23
			l0.08-0.03l31.56-42.51l63.04-21.23l0.08-0.03l31.56-42.51l12.88-4.34v-0.43l-13.22,4.45L504.59,58.83z M473.02,37.58
			l-31.57,42.51l-63.04,21.23l-0.08,0.03l-31.56,42.51l-63.04,21.23l-0.08,0.03l-31.56,42.51l-63.04,21.23l-0.08,0.03l-31.56,42.51
			l-63.04,21.23l-0.08,0.03l-22.43,30.21h0.64l22.22-29.93l63.04-21.23l0.08-0.03l31.56-42.51l63.04-21.23l0.08-0.03l31.56-42.51
			l63.04-21.23l0.08-0.03l31.56-42.51L441.8,80.4l0.08-0.03l31.56-42.51l44.44-14.96v-0.43l-44.78,15.08L473.02,37.58z
			 M449.43,21.61l-0.08,0.03l-31.56,42.51l-63.04,21.23l-0.08,0.03l-31.56,42.51l-63.04,21.23l-0.08,0.03l-31.56,42.51l-63.04,21.23
			l-0.08,0.03l-31.56,42.51l-63.04,21.23l-0.08,0.03l-31.56,42.51l-10.82,3.64h1.27l9.89-3.33l0.08-0.03L71,277l63.04-21.23
			l0.08-0.03l31.56-42.51L228.74,192l0.08-0.03l31.56-42.51l63.04-21.23l0.08-0.03l31.56-42.51l63.04-21.23l0.08-0.03l31.56-42.51
			l63.04-21.23l0.08-0.03l4.99-6.72v-0.86l-5.41,7.29L449.43,21.61z M480.91,42.89L449.35,85.4l-63.05,21.23l-0.08,0.03
			l-31.56,42.51l-63.04,21.23l-0.08,0.03l-31.56,42.51l-63.04,21.23l-0.08,0.03l-31.56,42.51l-63.04,21.23l-0.08,0.03l-18.49,24.9
			h0.64l18.27-24.61l63.04-21.23l0.08-0.03l31.56-42.51l63.04-21.23l0.08-0.03l31.56-42.51L355,149.49l0.08-0.03l31.56-42.51
			l63.05-21.23l0.08-0.03l31.56-42.51l36.55-12.31v-0.43L481,42.86L480.91,42.89z M496.7,181.06l-31.56,42.51l-63.04,21.23
			l-0.08,0.03l-31.56,42.51l-63.05,21.23l-0.08,0.03l-10.6,14.27h0.64l10.38-13.99l63.04-21.23l0.08-0.03l31.56-42.51l63.04-21.23
			l0.08-0.03l31.56-42.51l20.77-6.99v-0.43l-21.11,7.11L496.7,181.06z M504.59-4.94l-63.04,21.23l-0.08,0.03l-31.56,42.51
			l-63.04,21.23l-0.08,0.03L315.2,122.6l-63.04,21.23l-0.08,0.03l-31.56,42.51l-63.04,21.23l-0.08,0.03l-31.56,42.51l-63.04,21.23
			l-0.08,0.03l-31.56,42.51l-26.6,8.96h1.27l25.67-8.64l0.08-0.03l31.56-42.51l63.04-21.23l0.08-0.03l31.56-42.51l63.04-21.23
			l0.08-0.03l31.56-42.51l63.04-21.23l0.08-0.03l31.56-42.51l63.04-21.23l0.08-0.03l31.56-42.51l63.04-21.23l0.08-0.03L517.89-22
			v-0.86L504.59-4.94z M488.8,48.21l-31.56,42.51l-63.05,21.23l-0.08,0.03l-31.56,42.51l-63.05,21.23l-0.08,0.03l-31.56,42.51
			l-63.04,21.23l-0.08,0.03l-31.56,42.51l-63.04,21.23l-0.08,0.03l-14.54,19.59h0.64l14.33-19.3l63.04-21.23l0.08-0.03l31.57-42.51
			l63.04-21.23l0.08-0.03l31.57-42.51l63.04-21.23l0.08-0.03l31.56-42.51l63.05-21.23l0.08-0.03l31.56-42.51l28.66-9.65v-0.43
			l-29,9.76L488.8,48.21z M473.02,292.65l-22.43,30.21h0.64l22.22-29.93l44.44-14.96v-0.43l-44.78,15.08L473.02,292.65z
			 M480.91,297.97l-18.49,24.9h0.64l18.28-24.61l36.55-12.31v-0.43L481,297.94L480.91,297.97z M457.24,282.02l-30.32,40.84h0.64
			l30.11-40.56l60.23-20.28v-0.43L457.33,282L457.24,282.02z M488.8,303.28l-14.54,19.59h0.64l14.33-19.3l28.66-9.65v-0.43l-29,9.76
			L488.8,303.28z M449.43,276.68l-0.08,0.03l-31.56,42.51l-10.82,3.64h1.27l9.89-3.33l0.08-0.03L449.77,277l63.04-21.23l0.08-0.03
			l4.99-6.72v-0.86l-5.41,7.29L449.43,276.68z M512.48,319.22l-2.71,3.64h0.64l2.49-3.36l4.99-1.68v-0.43l-5.33,1.79L512.48,319.22z
			 M504.59,313.91l-6.65,8.96h0.64l6.44-8.67l12.88-4.34v-0.43l-13.22,4.45L504.59,313.91z M488.8,175.74l-31.56,42.51l-63.05,21.23
			l-0.08,0.03l-31.56,42.51l-63.05,21.23l-0.08,0.03l-14.54,19.59h0.64l14.33-19.3l63.04-21.23l0.08-0.03l31.56-42.51l63.05-21.23
			l0.08-0.03l31.56-42.51l28.66-9.65v-0.43l-29,9.76L488.8,175.74z M496.7,308.6l-10.6,14.27h0.64l10.38-13.99l20.77-6.99v-0.43
			l-21.11,7.11L496.7,308.6z M441.54,271.37l-0.08,0.03l-31.56,42.51l-26.6,8.96h1.27l25.67-8.64l0.08-0.03l31.56-42.51l63.04-21.23
			l0.08-0.03l12.88-17.35v-0.86l-13.3,17.92L441.54,271.37z M465.13,159.8l-31.56,42.51l-63.04,21.23l-0.08,0.03l-31.56,42.51
			l-63.05,21.23l-0.08,0.03l-26.38,35.53H250l26.17-35.24l63.04-21.23l0.08-0.03l31.56-42.51l63.04-21.23l0.08-0.03l31.56-42.51
			l52.33-17.62v-0.43l-52.67,17.74L465.13,159.8z M480.91,170.43l-31.56,42.51l-63.05,21.23l-0.08,0.03l-31.56,42.51l-63.04,21.23
			l-0.08,0.03l-18.49,24.9h0.64l18.27-24.61L355,277.02l0.08-0.03l31.56-42.51l63.05-21.23l0.08-0.03l31.56-42.51l36.55-12.31v-0.43
			L481,170.4L480.91,170.43z M473.02,165.12l-31.56,42.51l-63.04,21.23l-0.08,0.03l-31.56,42.51l-63.04,21.23l-0.08,0.03
			l-22.43,30.21h0.64l22.22-29.93l63.04-21.23l0.08-0.03l31.56-42.51l63.04-21.23l0.08-0.03l31.56-42.51l44.44-14.96v-0.43
			l-44.78,15.08L473.02,165.12z M457.24,154.49L425.68,197l-63.04,21.23l-0.08,0.03l-31.56,42.51L267.94,282l-0.08,0.03
			l-30.32,40.84h0.64l30.11-40.56l63.05-21.23l0.08-0.03l31.56-42.51l63.04-21.23l0.08-0.03l31.56-42.51l60.23-20.28v-0.43
			l-60.56,20.39L457.24,154.49z M433.65,266.05l-0.08,0.03L402,308.6l-42.38,14.27h1.27l41.45-13.96l0.08-0.03l31.56-42.51
			l63.04-21.23l0.08-0.03l20.77-27.97v-0.86l-21.19,28.54L433.65,266.05z M425.76,260.74l-0.08,0.03l-31.56,42.51l-58.17,19.59h1.27
			l57.23-19.27l0.08-0.03l31.56-42.51l63.04-21.23l0.08-0.03l28.66-38.6v-0.86l-29.08,39.17L425.76,260.74z M465.13,287.34
			l-26.38,35.53h0.64l26.17-35.24L517.89,270v-0.43l-52.67,17.74L465.13,287.34z M23.65,117.57L86.7,96.35l0.08-0.03l31.56-42.51
			l63.04-21.23l0.08-0.03l31.57-42.51l63.04-21.23l0.08-0.03l2.71-3.65h-0.64l-2.49,3.36L212.7-10.28l-0.08,0.03l-31.56,42.51
			l-63.04,21.23l-0.08,0.03L86.36,96.03l-63.04,21.23l-0.08,0.03L-8.33,159.8l-4.99,1.68v0.43l5.41-1.82L23.65,117.57z M7.87,170.71
			l31.56-42.51l63.04-21.23l0.08-0.03l31.56-42.51l63.04-21.23l0.08-0.03l31.56-42.51l63.04-21.23l0.08-0.03l10.6-14.27h-0.64
			l-10.39,13.99L228.48,0.35l-0.08,0.03l-31.56,42.51l-63.04,21.23l-0.08,0.03l-31.56,42.51L39.1,127.89l-0.08,0.03L7.45,170.43
			l-20.77,6.99v0.43l21.11-7.11L7.87,170.71z M63.02,207.94l0.08-0.03l31.56-42.51l63.04-21.23l0.08-0.03l31.56-42.51l63.04-21.23
			l0.08-0.03l31.56-42.51l63.04-21.23l0.08-0.03l31.56-42.51l26.61-8.96h-1.27l-25.68,8.65l-0.08,0.03l-31.56,42.51l-63.04,21.23
			l-0.08,0.03l-31.56,42.51l-63.04,21.23l-0.08,0.03l-31.56,42.51l-63.04,21.23l-0.08,0.03l-31.56,42.51l-63.04,21.23l-0.08,0.03
			l-12.88,17.35v0.86l13.3-17.92L63.02,207.94z M55.13,202.63l0.08-0.03l31.56-42.51l63.04-21.23l0.08-0.03l31.56-42.51l63.05-21.23
			l0.08-0.03l31.56-42.51l63.04-21.23l0.08-0.03l31.56-42.51l10.83-3.65h-1.27l-9.89,3.33l-0.08,0.03l-31.57,42.51l-63.04,21.23
			l-0.08,0.03l-31.56,42.51L181.14,96l-0.08,0.03l-31.56,42.51l-63.05,21.23l-0.08,0.03l-31.56,42.51l-63.04,21.23l-0.08,0.03
			l-4.99,6.72v0.86l5.41-7.29L55.13,202.63z M2.92-34.87H1.64l-9.89,3.33l-0.08,0.03l-4.99,6.72v0.86l5.41-7.29L2.92-34.87z
			 M31.54,186.66l31.56-42.51l63.04-21.23l0.08-0.03l31.56-42.51l63.04-21.23l0.08-0.03l31.57-42.51l63.04-21.23l0.08-0.03
			l22.43-30.22h-0.64L315.2-4.94l-63.04,21.23l-0.08,0.03l-31.57,42.51l-63.04,21.23l-0.08,0.03l-31.56,42.51l-63.04,21.23
			l-0.08,0.03l-31.56,42.51l-44.44,14.96v0.43l44.78-15.08L31.54,186.66z M23.65,181.34l31.56-42.51l63.05-21.23l0.08-0.03
			l31.56-42.51l63.04-21.23l0.08-0.03l31.56-42.51l63.04-21.23l0.08-0.03l18.49-24.9h-0.64l-18.28,24.62l-63.04,21.23l-0.08,0.03
			l-31.56,42.51l-63.04,21.23l-0.08,0.03l-31.56,42.51l-63.05,21.23l-0.08,0.03l-31.56,42.51l-36.55,12.31v0.43l36.89-12.42
			L23.65,181.34z M15.76,176.03l31.56-42.51l63.05-21.23l0.08-0.03l31.56-42.51l63.04-21.23l0.08-0.03l31.56-42.51l63.04-21.23
			l0.08-0.03l14.54-19.59h-0.64l-14.33,19.3L236.37,5.66l-0.08,0.03l-31.56,42.51l-63.04,21.23l-0.08,0.03l-31.56,42.51L46.99,133.2
			l-0.08,0.03l-31.56,42.51l-28.66,9.65v0.43l29-9.76L15.76,176.03z M7.87,298.25l31.57-42.51l63.04-21.23l0.08-0.03l31.56-42.51
			l63.04-21.23l0.08-0.03l31.56-42.51l63.04-21.23l0.08-0.03l31.56-42.51l63.04-21.23l0.08-0.03l31.56-42.51l63.05-21.23l0.08-0.03
			l10.6-14.27h-0.64l-10.38,13.99L417.87,0.35l-0.08,0.03l-31.56,42.51l-63.04,21.23l-0.08,0.03l-31.56,42.51l-63.04,21.23
			l-0.08,0.03l-31.56,42.51l-63.04,21.23l-0.08,0.03l-31.56,42.51L39.1,255.43l-0.08,0.03L7.45,297.97l-20.77,6.99v0.43l21.11-7.11
			L7.87,298.25z M-0.02,292.94l31.56-42.51l63.04-21.23l0.08-0.03l31.56-42.51l63.04-21.23l0.08-0.03l31.56-42.51l63.04-21.23
			l0.08-0.03l31.56-42.51l63.04-21.23l0.08-0.03l31.56-42.51l63.04-21.23l0.08-0.03l6.65-8.96h-0.64l-6.44,8.67L409.98-4.96
			l-0.08,0.03l-31.56,42.51l-63.04,21.23l-0.08,0.03l-31.56,42.51l-63.04,21.23l-0.08,0.03l-31.56,42.51l-63.04,21.23l-0.08,0.03
			l-31.56,42.51l-63.04,21.23l-0.08,0.03l-31.56,42.51l-12.88,4.34v0.43l13.22-4.45L-0.02,292.94z M23.65,245.11l63.04-21.23
			l0.08-0.03l31.56-42.51l63.04-21.23l0.08-0.03l31.56-42.51l63.04-21.23l0.08-0.03l31.56-42.51l63.04-21.23l0.08-0.03l31.56-42.51
			l63.04-21.23l0.08-0.03l2.71-3.65h-0.64l-2.49,3.36l-63.04,21.23L402-10.25l-31.56,42.51l-63.05,21.23l-0.08,0.03l-31.57,42.51
			l-63.04,21.23l-0.08,0.03l-31.56,42.51l-63.04,21.23l-0.08,0.03l-31.56,42.51L23.31,244.8l-0.08,0.03l-31.57,42.51l-4.99,1.68
			v0.43l5.41-1.82L23.65,245.11z M70.91,213.26l0.08-0.03l31.56-42.51l63.04-21.23l0.08-0.03l31.56-42.51l63.04-21.23l0.08-0.03
			l31.56-42.51L355,21.95l0.08-0.03l31.56-42.51l42.39-14.27h-1.27L386.3-20.91l-0.08,0.03l-31.56,42.51l-63.04,21.23l-0.08,0.03
			L259.96,85.4l-63.04,21.23l-0.08,0.03l-31.56,42.51l-63.04,21.23l-0.08,0.03l-31.56,42.51L7.53,234.17l-0.08,0.03l-20.77,27.97
			v0.86l21.19-28.54L70.91,213.26z M23.65,308.88l31.56-42.51l63.05-21.23l0.08-0.03l31.56-42.51l63.04-21.23l0.08-0.03l31.57-42.51
			l63.04-21.23l0.08-0.03l31.56-42.51l63.04-21.23l0.08-0.03l31.56-42.51l63.04-21.23l0.08-0.03l18.49-24.9h-0.64L496.7-10.25
			l-63.04,21.23l-0.08,0.03L402,53.52l-63.04,21.23l-0.08,0.03l-31.56,42.51l-63.04,21.23l-0.08,0.03l-31.57,42.51l-63.04,21.23
			l-0.08,0.03l-31.56,42.51l-63.05,21.23l-0.08,0.03L23.23,308.6l-36.55,12.31v0.43l36.89-12.42L23.65,308.88z M78.81,218.57
			l0.08-0.03l31.56-42.51l63.04-21.23l0.08-0.03l31.56-42.51l63.04-21.23l0.08-0.03l31.56-42.51l63.04-21.23l0.08-0.03l31.56-42.51
			l58.17-19.59h-1.27L394.2-15.59l-0.08,0.03l-31.56,42.51L299.5,48.18l-0.08,0.03l-31.56,42.51l-63.04,21.23l-0.08,0.03
			l-31.56,42.51l-63.04,21.23l-0.08,0.03l-31.56,42.51l-63.04,21.23l-0.08,0.03l-28.66,38.6v0.86l29.08-39.17L78.81,218.57z
			 M39.44,191.97L71,149.46l63.04-21.23l0.08-0.03l31.56-42.51l63.04-21.23l0.08-0.03l31.56-42.51l63.04-21.23l0.08-0.03
			l26.38-35.53h-0.64L323.09,0.38l-63.04,21.23l-0.08,0.03L228.4,64.15l-63.04,21.23l-0.08,0.03l-31.56,42.51l-63.04,21.23
			l-0.08,0.03l-31.56,42.51l-52.34,17.62v0.43L39.35,192L39.44,191.97z M15.76,303.57l31.56-42.51l63.05-21.23l0.08-0.03
			l31.56-42.51l63.04-21.23l0.08-0.03l31.56-42.51l63.04-21.23l0.08-0.03l31.56-42.51l63.04-21.23l0.08-0.03L426.1,5.98l63.04-21.23
			l0.08-0.03l14.54-19.59h-0.64l-14.33,19.3L425.76,5.66l-0.08,0.03L394.11,48.2l-63.04,21.23l-0.08,0.03l-31.56,42.51l-63.04,21.23
			l-0.08,0.03l-31.56,42.51l-63.04,21.23L141.6,197l-31.56,42.51l-63.05,21.23l-0.08,0.03l-31.56,42.51l-28.66,9.65v0.43l29-9.76
			L15.76,303.57z M-0.02,165.4l31.56-42.51l63.04-21.23l0.08-0.03l31.56-42.51l63.04-21.23l0.08-0.03l31.56-42.51l63.04-21.23
			l0.08-0.03l6.65-8.96h-0.64l-6.44,8.67L220.59-4.96l-0.08,0.03l-31.56,42.51L125.9,58.81l-0.08,0.03l-31.56,42.51l-63.04,21.23
			l-0.08,0.03l-31.56,42.51l-12.88,4.34v0.43l13.22-4.45L-0.02,165.4z M15.76,48.49L47.33,5.98l63.05-21.23l0.08-0.03L125-34.87
			h-0.64l-14.33,19.3L46.99,5.66L46.9,5.69L15.34,48.21l-28.66,9.65v0.43l29-9.76L15.76,48.49z M31.54,59.12l31.56-42.51
			l63.04-21.23l0.08-0.03l22.43-30.22h-0.64L125.81-4.94L62.77,16.29l-0.08,0.03L31.12,58.83L-13.32,73.8v0.43l44.78-15.08
			L31.54,59.12z M39.44,64.43L71,21.92l63.04-21.23l0.08-0.03l26.38-35.53h-0.64L133.71,0.38L70.66,21.61l-0.08,0.03L39.01,64.15
			l-52.34,17.62v0.43l52.67-17.74L39.44,64.43z M23.65,53.8l31.56-42.51l63.05-21.23l0.08-0.03l18.49-24.9h-0.64l-18.28,24.62
			L54.88,10.98l-0.08,0.03L23.23,53.52l-36.55,12.31v0.43l36.89-12.42L23.65,53.8z M47.33,69.75l31.56-42.51l63.04-21.23l0.08-0.03
			l30.33-40.84h-0.64L141.6,5.69L78.55,26.92l-0.08,0.03L46.9,69.46l-60.23,20.28v0.43l60.56-20.39L47.33,69.75z M26.59-34.87h-1.27
			l-25.68,8.65l-0.08,0.03L-13.32-8.85v0.86l13.3-17.92L26.59-34.87z M73.94-34.87h-1.27L15.42-15.59l-0.08,0.03l-28.66,38.6v0.86
			l29.08-39.17L73.94-34.87z M50.26-34.87h-1.27L7.53-20.91l-0.08,0.03L-13.32,7.1v0.86L7.87-20.59L50.26-34.87z M55.13,75.09
			l0.08-0.03l31.56-42.51l63.04-21.23l0.08-0.03l31.56-42.51l10.83-3.65h-1.27l-9.89,3.33l-0.08,0.03l-31.56,42.51L86.44,32.23
			l-0.08,0.03L54.79,74.78L-8.25,96l-0.08,0.03l-4.99,6.72v0.86l5.41-7.29L55.13,75.09z M7.87,43.18L39.44,0.66l63.04-21.23
			l0.08-0.03l10.6-14.27h-0.64l-10.39,13.99L39.1,0.35l-0.08,0.03L7.45,42.89l-20.77,6.99v0.43l21.11-7.11L7.87,43.18z M78.81,91.03
			L78.89,91l31.56-42.51l63.04-21.23l0.08-0.03l31.56-42.51l58.17-19.59h-1.27l-57.24,19.27l-0.08,0.03l-31.56,42.51l-63.04,21.23
			l-0.08,0.03L78.47,90.72l-63.04,21.23l-0.08,0.03l-28.66,38.6v0.86l29.08-39.17L78.81,91.03z M63.02,80.4l0.08-0.03l31.56-42.51
			l63.04-21.23l0.08-0.03l31.56-42.51l26.61-8.96h-1.27l-25.68,8.65l-0.08,0.03l-31.56,42.51L94.33,37.55l-0.08,0.03L62.68,80.09
			l-63.04,21.23l-0.08,0.03l-12.88,17.35v0.86l13.3-17.92L63.02,80.4z M70.91,85.72L71,85.69l31.57-42.51l63.04-21.23l0.08-0.03
			l31.56-42.51l42.39-14.27h-1.27l-41.46,13.96l-0.08,0.03l-31.56,42.51l-63.04,21.23l-0.08,0.03L70.58,85.4L7.53,106.63l-0.08,0.03
			l-20.77,27.97v0.86l21.19-28.54L70.91,85.72z M-0.02,37.86L31.54-4.65l63.04-21.23l0.08-0.03l6.65-8.96h-0.64l-6.44,8.67
			L31.21-4.96l-0.08,0.03L-0.44,37.58l-12.88,4.34v0.43l13.22-4.45L-0.02,37.86z M23.65-9.96L86.7-31.19l0.08-0.03l2.71-3.65h-0.64
			l-2.49,3.36L23.31-10.28l-0.08,0.03L-8.33,32.26l-4.99,1.68v0.43l5.41-1.82L23.65-9.96z M47.33,197.28l31.56-42.51l63.04-21.23
			l0.08-0.03L173.58,91l63.04-21.23l0.08-0.03l31.56-42.51l63.05-21.23l0.08-0.03l30.33-40.84h-0.64L330.98,5.69l-63.04,21.23
			l-0.08,0.03l-31.56,42.51l-63.05,21.23l-0.08,0.03l-31.56,42.51l-63.04,21.23l-0.08,0.03L46.9,197l-60.23,20.28v0.43l60.56-20.39
			L47.33,197.28z"/>
	</g>
</g>
</svg>
