<svg width="800" height="711" viewBox="0 0 800 711" fill="none" xmlns="http://www.w3.org/2000/svg">
<path d="M673.125 344.582L673.004 344.641L625.462 429.117L530.527 471.306L530.407 471.365L482.879 555.842L387.945 598.03L387.824 598.09L340.297 682.566L276.46 710.923H278.373L340.794 683.182L340.914 683.122L388.457 598.646L483.391 556.458L483.512 556.398L531.054 471.922L625.989 429.733L626.109 429.674L673.637 345.198L768.571 303.009L768.691 302.95L799.97 247.367V245.658L768.059 302.373L673.125 344.582ZM661.243 334.01L661.122 334.069L613.595 418.546L518.66 460.734L518.54 460.794L471.012 545.27L376.078 587.458L375.958 587.518L328.43 671.994L240.83 710.923H242.742L328.927 672.63L329.048 672.57L376.575 588.094L471.509 545.906L471.63 545.846L519.157 461.37L614.092 419.181L614.212 419.122L661.74 334.646L756.674 292.457L756.794 292.398L799.955 215.691V213.982L756.162 291.821L661.243 334.01ZM708.65 122.869L661.122 207.345L566.188 249.534L566.067 249.593L518.54 334.069L423.606 376.258L423.485 376.317L375.912 460.794L280.963 502.982L280.843 503.042L233.315 587.518L138.366 629.706L138.245 629.766L92.5851 710.923H93.5489L138.893 630.322L233.827 588.134L233.948 588.074L281.475 503.598L376.409 461.41L376.53 461.35L424.057 376.874L519.007 334.685L519.127 334.626L566.685 250.15L661.619 207.961L661.74 207.902L709.267 123.425L799.97 83.1249V82.2902L708.77 122.809L708.65 122.869ZM720.531 133.421L673.004 217.897L578.055 260.086L577.934 260.145L530.407 344.621L435.457 386.81L435.337 386.869L387.809 471.346L292.86 513.534L292.739 513.594L245.212 598.07L150.263 640.258L150.142 640.318L110.415 710.923H111.379L150.79 640.894L245.724 598.706L245.845 598.646L293.372 514.17L388.321 471.982L388.442 471.922L435.969 387.446L530.904 345.257L531.024 345.198L578.567 260.722L673.501 218.533L673.622 218.474L721.164 133.997L799.97 98.9828V98.1283L720.652 133.381L720.531 133.421ZM779.956 439.669L732.428 524.146L637.494 566.334L637.374 566.394L589.846 650.87L494.912 693.058L494.791 693.118L484.777 710.923H485.741L495.439 693.694L590.373 651.506L590.494 651.446L638.021 566.97L732.956 524.782L733.076 524.722L780.603 440.246L800 431.621V430.767L780.091 439.61L779.956 439.669ZM791.838 450.241L744.31 534.718L649.376 576.906L649.255 576.966L601.728 661.442L506.794 703.63L506.673 703.69L502.592 710.923H503.556L507.306 704.246L602.24 662.058L602.36 661.998L649.888 577.522L744.837 535.334L744.958 535.274L792.485 450.798L800 447.459V446.605L791.973 450.162L791.838 450.241ZM696.888 365.686L696.768 365.745L649.24 450.222L554.306 492.41L554.185 492.47L506.658 576.946L411.724 619.134L411.603 619.194L364.076 703.67L347.782 710.903H349.694L364.588 704.286L364.708 704.226L412.206 619.77L507.14 577.582L507.26 577.522L554.788 493.046L649.737 450.857L649.858 450.798L697.385 366.322L792.32 324.133L792.44 324.074L799.955 310.72V309.011L791.808 323.497L696.888 365.686ZM685.006 355.134L684.886 355.193L637.358 439.669L542.424 481.858L542.304 481.918L494.776 566.394L399.842 608.582L399.721 608.642L352.194 693.118L312.136 710.923H314.049L352.706 693.754L352.826 693.694L400.354 609.218L495.288 567.03L495.409 566.97L542.936 482.494L637.87 440.305L637.991 440.246L685.518 355.77L780.453 313.581L780.573 313.522L799.97 279.044V277.335L779.941 312.945L685.006 355.134ZM768.074 175.669L720.547 260.145L625.612 302.334L625.492 302.393L577.964 386.869L483.03 429.058L482.909 429.117L435.382 513.594L340.387 555.782L340.267 555.842L292.739 640.318L197.805 682.506L197.685 682.566L181.722 710.923H182.685L198.317 683.122L293.251 640.934L293.372 640.874L340.899 556.398L435.834 514.21L435.954 514.15L483.482 429.674L578.416 387.485L578.536 387.426L626.064 302.95L720.998 260.761L721.119 260.702L768.646 176.225L799.925 162.335V161.48L768.134 175.609L768.074 175.669ZM791.838 196.793L744.31 281.269L649.376 323.458L649.255 323.517L601.728 407.993L506.794 450.182L506.673 450.241L459.131 534.718L364.196 576.906L364.076 576.966L316.548 661.442L221.614 703.63L221.493 703.69L217.412 710.923H218.376L222.126 704.246L317.06 662.058L317.181 661.998L364.708 577.522L459.643 535.334L459.763 535.274L507.306 450.798L602.24 408.609L602.36 408.55L649.888 324.074L744.837 281.885L744.958 281.826L792.485 197.35L800 194.011V193.156L791.973 196.714L791.838 196.793ZM779.956 186.221L732.428 270.697L637.494 312.886L637.374 312.945L589.846 397.422L494.912 439.61L494.791 439.669L447.264 524.146L352.329 566.334L352.209 566.394L304.682 650.87L209.747 693.058L209.627 693.118L199.612 710.923H200.576L210.274 693.694L305.209 651.506L305.329 651.446L352.857 566.97L447.791 524.782L447.911 524.722L495.439 440.246L590.373 398.057L590.494 397.998L638.021 313.522L732.956 271.333L733.076 271.274L780.603 186.797L800 178.173V177.318L780.091 186.162L779.956 186.221ZM732.413 143.993L684.871 228.469L589.936 270.658L589.816 270.717L542.289 355.193L447.354 397.382L447.234 397.441L399.706 481.918L304.772 524.106L304.651 524.166L257.124 608.642L162.19 650.83L162.069 650.89L128.291 710.923H129.255L162.717 651.446L257.651 609.258L257.772 609.198L305.299 524.722L400.233 482.534L400.354 482.474L447.881 397.998L542.816 355.809L542.936 355.75L590.464 271.274L685.398 229.085L685.518 229.026L733.046 144.549L799.97 114.821V113.966L732.534 143.933L732.413 143.993ZM696.888 112.257L696.768 112.317L649.24 196.793L554.306 238.981L554.185 239.041L506.658 323.517L411.724 365.706L411.603 365.765L364.076 450.241L269.141 492.43L269.021 492.489L221.493 576.966L126.559 619.154L126.439 619.214L78.9112 703.69L62.6169 710.923H64.5295L79.4232 704.306L79.5437 704.246L126.996 619.77L221.93 577.582L222.051 577.522L269.578 493.046L364.543 450.857L364.663 450.798L412.191 366.322L507.125 324.133L507.245 324.074L554.773 239.598L649.707 197.409L649.828 197.35L697.355 112.873L792.29 70.6849L792.41 70.6253L799.925 57.2713V55.5623L791.778 70.049L696.888 112.257ZM744.295 154.545L696.768 239.021L601.818 281.21L601.698 281.269L554.17 365.745L459.236 407.934L459.116 407.993L411.588 492.47L316.654 534.658L316.533 534.718L269.006 619.194L174.071 661.382L173.951 661.442L146.106 710.923H147.07L174.583 662.018L269.518 619.83L269.638 619.77L317.166 535.294L412.1 493.105L412.221 493.046L459.748 408.57L554.682 366.381L554.803 366.322L602.33 281.846L697.28 239.657L697.4 239.598L744.928 155.121L799.97 130.659V129.804L744.431 154.485L744.295 154.545ZM768.074 429.117L720.547 513.594L625.612 555.782L625.492 555.842L577.964 640.318L483.015 682.506L482.894 682.566L466.931 710.923H467.895L483.527 683.122L578.461 640.934L578.582 640.874L626.109 556.398L721.044 514.21L721.164 514.15L768.691 429.674L799.97 415.783V414.929L768.179 429.058L768.074 429.117ZM779.956 59.497L685.021 101.685L684.901 101.745L637.374 186.221L542.439 228.41L542.319 228.469L494.746 312.945L399.812 355.134L399.691 355.193L352.164 439.669L257.229 481.858L257.109 481.918L209.582 566.394L114.647 608.582L114.527 608.642L66.9992 693.118L26.9412 710.923H28.8538L67.5112 693.754L67.6317 693.694L115.159 609.218L210.094 567.03L210.214 566.97L257.741 482.494L352.676 440.305L352.796 440.246L400.324 355.77L495.258 313.581L495.379 313.522L542.906 229.045L637.84 186.857L637.961 186.797L685.488 102.321L780.423 60.1329L780.543 60.0733L799.985 25.5952V23.8862L779.956 59.497ZM756.177 165.117L708.65 249.593L613.7 291.782L613.58 291.841L566.052 376.317L471.103 418.506L470.982 418.565L423.455 503.042L328.521 545.23L328.4 545.29L280.873 629.766L185.938 671.954L185.818 672.014L163.921 710.943H164.885L186.465 672.59L281.4 630.402L281.52 630.342L329.063 545.866L423.997 503.677L424.118 503.618L471.66 419.142L566.594 376.953L566.715 376.894L614.242 292.417L709.192 250.229L709.312 250.169L756.84 165.693L800 146.517V145.662L756.328 165.057L756.177 165.117ZM732.413 650.87L698.635 710.903H699.599L733.061 651.426L799.985 621.698V620.843L732.549 650.81L732.413 650.87ZM744.295 661.442L716.45 710.923H717.414L744.943 662.018L799.985 637.556V636.701L744.431 661.382L744.295 661.442ZM708.65 629.746L662.99 710.903H663.953L709.297 630.302L800 590.002V589.147L708.785 629.706L708.65 629.746ZM756.177 671.994L734.281 710.923H735.245L756.825 672.57L799.985 653.394V652.539L756.313 671.934L756.177 671.994ZM696.888 619.134L696.768 619.194L649.24 703.67L632.946 710.903H634.859L649.752 704.286L649.873 704.226L697.4 619.77L792.335 577.582L792.455 577.522L799.97 564.168V562.459L791.823 576.946L696.888 619.134ZM791.838 703.67L787.757 710.903H788.72L792.47 704.226L799.985 700.888V700.033L791.958 703.59L791.838 703.67ZM779.956 693.118L769.941 710.923H770.905L780.603 693.694L800 685.07V684.215L780.091 693.058L779.956 693.118ZM756.177 418.546L708.65 503.022L613.7 545.21L613.58 545.27L566.052 629.746L471.103 671.934L470.982 671.994L449.086 710.923H450.05L471.63 672.57L566.564 630.382L566.685 630.322L614.212 545.846L709.162 503.658L709.282 503.598L756.81 419.122L799.97 399.945V399.091L756.298 418.486L756.177 418.546ZM768.074 682.566L752.111 710.923H753.075L768.706 683.122L799.985 669.232V668.377L768.194 682.506L768.074 682.566ZM685.006 608.582L684.886 608.642L637.358 693.118L597.3 710.923H599.213L637.87 693.754L637.991 693.694L685.518 609.218L780.453 567.03L780.573 566.97L799.97 532.492V530.783L779.941 566.394L685.006 608.582ZM720.531 386.869L673.004 471.346L578.07 513.534L577.949 513.594L530.422 598.07L435.472 640.258L435.352 640.318L395.625 710.923H396.559L435.969 640.894L530.904 598.706L531.024 598.646L578.552 514.17L673.486 471.982L673.606 471.922L721.134 387.446L799.94 352.431V351.577L720.622 386.83L720.531 386.869ZM744.295 407.993L696.768 492.47L601.818 534.658L601.698 534.718L554.17 619.194L459.236 661.382L459.116 661.442L431.271 710.923H432.235L459.748 662.018L554.682 619.81L554.803 619.75L602.33 535.274L697.28 493.086L697.4 493.026L744.928 408.55L799.97 384.087V383.233L744.431 407.934L744.295 407.993ZM732.413 397.441L684.886 481.918L589.952 524.106L589.831 524.166L542.304 608.642L447.369 650.83L447.249 650.89L413.471 710.923H414.434L447.896 651.446L542.831 609.258L542.951 609.198L590.479 524.722L685.413 482.534L685.534 482.474L733.061 397.998L799.985 368.269V367.415L732.549 397.382L732.413 397.441ZM708.65 376.317L661.122 460.794L566.188 502.982L566.067 503.042L518.54 587.518L423.575 629.706L423.455 629.766L377.795 710.923H378.759L424.103 630.322L519.052 588.134L519.172 588.074L566.7 503.598L661.634 461.41L661.755 461.35L709.282 376.874L799.985 336.573V335.719L708.785 376.238L708.65 376.317ZM673.125 598.01L673.004 598.07L625.462 682.566L561.64 710.923H563.552L625.974 683.182L626.094 683.122L673.622 598.646L768.556 556.458L768.676 556.398L799.955 500.816V499.107L768.044 555.822L673.125 598.01ZM661.243 587.458L661.122 587.518L613.595 671.994L525.994 710.923H527.907L614.092 672.63L614.212 672.57L661.74 588.094L756.674 545.906L756.794 545.846L799.955 469.14V467.431L756.162 545.27L661.243 587.458ZM720.531 640.318L680.805 710.923H681.769L721.179 640.894L799.985 605.86V605.005L720.667 640.258L720.531 640.318ZM55.6896 302.95L150.639 260.781L150.76 260.722L198.287 176.245L293.221 134.057L293.342 133.997L340.884 49.5212L435.819 7.33279L435.939 7.27318L440.02 0.0198763H439.056L435.307 6.69689L340.387 48.8853L340.267 48.9449L292.739 133.421L197.805 175.609L197.685 175.669L150.127 260.145L55.1927 302.334L55.0722 302.393L7.52969 386.869L0.0150597 390.208V391.062L8.16219 387.446L55.6896 302.95ZM31.9259 408.55L79.4533 324.074L174.388 281.885L174.508 281.826L222.036 197.35L316.97 155.161L317.09 155.102L364.618 70.6253L459.552 28.4369L459.673 28.3773L475.636 0.0198763H474.672L459.025 27.8209L364.151 70.0093L364.031 70.0689L316.503 154.545L221.569 196.733L221.448 196.793L173.921 281.269L78.9564 323.458L78.8359 323.517L31.2934 407.993L0.0150597 421.884V422.739L31.8054 408.609L31.9259 408.55ZM114.978 482.534L115.099 482.474L162.626 397.998L257.561 355.809L257.681 355.75L305.209 271.274L400.143 229.085L400.264 229.026L447.791 144.549L542.725 102.361L542.846 102.301L590.373 17.8252L630.446 0.0198763H628.534L589.861 17.2092L589.741 17.2688L542.213 101.745L447.279 143.933L447.158 143.993L399.631 228.469L304.697 270.658L304.576 270.717L257.049 355.193L162.114 397.382L161.994 397.441L114.466 481.918L19.532 524.106L19.4116 524.166L0.0150597 558.644V560.353L20.044 524.742L114.978 482.534ZM103.097 471.982L103.217 471.922L150.744 387.446L245.679 345.257L245.799 345.198L293.327 260.722L388.276 218.533L388.397 218.474L435.924 133.997L530.858 91.809L530.979 91.7493L578.506 7.27318L594.816 0.0198763H592.903L578.009 6.63727L577.889 6.69689L530.346 91.173L435.412 133.361L435.292 133.421L387.764 217.897L292.86 260.086L292.739 260.145L245.212 344.621L150.263 386.81L150.142 386.869L102.615 471.346L7.68029 513.534L7.55981 513.594L0.0451778 526.948V528.657L8.19231 514.17L103.097 471.982ZM24.4715 0.0198763H22.5439L7.65017 6.63727L7.52969 6.69689L0.0150597 20.0509V21.7599L8.16219 7.27318L24.4715 0.0198763ZM67.5715 440.246L115.099 355.77L210.033 313.581L210.154 313.522L257.681 229.045L352.616 186.857L352.736 186.797L400.279 102.321L495.213 60.1329L495.333 60.0733L529.112 0.0198763H528.148L494.746 59.497L399.812 101.685L399.691 101.745L352.149 186.221L257.214 228.41L257.094 228.469L209.566 312.945L114.632 355.134L114.512 355.193L66.9842 439.669L0.0602375 469.398V470.253L67.4962 440.286L67.5715 440.246ZM55.6896 429.674L103.217 345.198L198.166 303.009L198.287 302.95L245.814 218.474L340.749 176.285L340.869 176.225L388.397 91.7493L483.331 49.5609L483.452 49.5013L511.296 0.0198763H510.333L482.804 48.9449L387.87 91.1333L387.749 91.1929L340.222 175.669L245.287 217.857L245.167 217.917L197.639 302.393L102.69 344.582L102.569 344.641L55.0421 429.117L0 453.58V454.434L55.5541 429.753L55.6896 429.674ZM43.8078 419.122L91.3352 334.646L186.285 292.457L186.405 292.398L233.933 207.921L328.867 165.733L328.987 165.673L376.515 81.1973L471.449 39.0089L471.57 38.9493L493.466 0.0198763H492.502L470.922 38.373L376.033 80.5614L375.912 80.621L328.385 165.097L233.451 207.286L233.33 207.345L185.803 291.821L90.8382 334.01L90.7178 334.069L43.1903 418.546L0.030118 437.722V438.577L43.7023 419.181L43.8078 419.122ZM31.9259 661.998L79.4684 577.522L174.403 535.334L174.523 535.274L222.051 450.798L316.985 408.609L317.106 408.55L364.633 324.074L459.567 281.885L459.688 281.826L507.215 197.35L602.15 155.161L602.27 155.102L649.798 70.6253L744.747 28.4369L744.867 28.3773L760.83 0.0198763H759.867L744.235 27.8209L649.361 70.0093L649.24 70.0689L601.713 154.545L506.779 196.733L506.658 196.793L459.131 281.269L364.196 323.458L364.076 323.517L316.548 407.993L221.614 450.182L221.493 450.241L173.966 534.718L78.9564 576.906L78.8359 576.966L31.2934 661.442L0.0150597 675.332V676.187L31.8054 662.058L31.9259 661.998ZM20.044 651.446L67.5715 566.97L162.506 524.782L162.626 524.722L210.154 440.246L305.088 398.057L305.209 397.998L352.736 313.522L447.67 271.333L447.791 271.274L495.318 186.797L590.253 144.609L590.373 144.549L637.901 60.0733L732.835 17.8849L732.956 17.8252L742.97 0.0198763H742.006L732.308 17.249L637.479 59.4572L637.358 59.5168L589.831 143.993L494.897 186.181L494.776 186.241L447.249 270.717L352.314 312.906L352.194 312.965L304.667 397.441L209.732 439.63L209.612 439.689L162.084 524.166L67.1498 566.354L67.0293 566.414L19.5019 650.89L0.105415 659.514V660.369L20.0139 651.526L20.044 651.446ZM55.6896 556.398L150.624 514.21L150.744 514.15L198.272 429.674L293.206 387.485L293.327 387.426L340.854 302.95L435.789 260.761L435.909 260.702L483.436 176.225L578.371 134.037L578.491 133.977L626.019 49.5013L720.953 7.31292L721.074 7.25331L725.155 0H724.191L720.441 6.67702L625.507 48.8654L625.462 48.9449L577.934 133.421L482.985 175.609L482.864 175.669L435.322 260.145L340.387 302.334L340.267 302.393L292.739 386.869L197.805 429.058L197.685 429.117L150.157 513.594L55.1776 555.782L55.0571 555.842L7.51463 640.318L0 643.656V644.511L8.14713 640.894L55.6896 556.398ZM126.86 493.105L126.981 493.046L174.508 408.57L269.443 366.381L269.563 366.322L317.09 281.846L412.025 239.657L412.145 239.598L459.673 155.121L554.682 112.933L554.803 112.873L602.33 28.3972L666.167 0.039745H664.255L601.818 27.7613L601.698 27.8209L554.17 112.297L459.236 154.485L459.116 154.545L411.558 239.021L316.624 281.21L316.503 281.269L268.976 365.745L174.041 407.934L173.921 407.993L126.393 492.47L31.4139 534.658L31.2934 534.718L0.0150597 590.3V592.009L31.9259 535.294L126.86 493.105ZM55.6896 683.122L103.217 598.646L198.166 556.458L198.287 556.398L245.814 471.922L340.749 429.733L340.869 429.674L388.412 345.198L483.346 303.009L483.467 302.95L530.994 218.474L625.928 176.285L626.049 176.225L673.576 91.7493L768.511 49.5609L768.631 49.5013L796.476 0.0198763H795.512L768.074 48.9449L673.14 91.1333L673.019 91.1929L625.462 175.669L530.527 217.857L530.407 217.917L482.879 302.393L387.945 344.582L387.824 344.641L340.282 429.117L245.348 471.306L245.227 471.365L197.7 555.842L102.75 598.03L102.63 598.09L55.0571 682.566L0.0150597 707.028V707.883L55.5691 683.202L55.6896 683.122ZM138.757 503.658L138.878 503.598L186.405 419.122L281.34 376.933L281.46 376.874L328.987 292.398L423.922 250.209L424.042 250.15L471.57 165.673L566.504 123.485L566.625 123.425L614.152 38.9493L701.752 0.0198763H699.84L613.715 38.3332L613.595 38.3928L566.067 122.869L471.103 165.057L470.982 165.117L423.455 249.593L328.521 291.782L328.4 291.841L280.873 376.317L185.938 418.506L185.818 418.565L138.29 503.042L43.356 545.23L43.2355 545.29L0.0752972 621.996V623.705L43.868 545.866L138.757 503.658ZM79.4684 450.798L126.996 366.322L221.93 324.133L222.051 324.074L269.578 239.598L364.513 197.409L364.633 197.35L412.16 112.873L507.095 70.6849L507.215 70.6253L546.942 0.0198763H545.978L506.628 70.0689L411.694 112.257L411.573 112.317L364.031 196.793L269.096 238.981L268.976 239.041L221.448 323.517L126.514 365.706L126.393 365.765L78.866 450.241L0.0451778 485.256V486.111L79.3329 450.857L79.4684 450.798ZM43.8078 672.57L91.3352 588.094L186.285 545.906L186.405 545.846L233.933 461.37L328.867 419.181L328.987 419.122L376.515 334.646L471.449 292.457L471.57 292.398L519.097 207.921L614.031 165.733L614.152 165.673L661.755 81.1973L756.689 39.0089L756.81 38.9493L778.706 0.0198763H777.742L756.162 38.373L661.243 80.5614L661.122 80.621L613.58 165.097L518.645 207.286L518.525 207.345L470.997 291.821L376.063 334.01L375.943 334.069L328.415 418.546L233.481 460.734L233.315 460.794L185.788 545.27L90.8382 587.458L90.7178 587.518L43.1903 671.994L0.030118 691.17V692.025L43.7023 672.63L43.8078 672.57ZM20.044 397.998L67.5715 313.522L162.506 271.333L162.626 271.274L210.154 186.797L305.088 144.609L305.209 144.549L352.736 60.0733L447.67 17.8849L447.791 17.8252L457.805 0.0198763H456.842L447.143 17.249L352.269 59.4572L352.149 59.5168L304.621 143.993L209.672 186.181L209.551 186.241L162.024 270.717L67.0896 312.906L66.9691 312.965L19.4417 397.441L0.0451778 406.066V406.92L19.9537 398.077L20.044 397.998ZM43.8078 165.673L91.3503 81.1973L186.3 39.0089L186.42 38.9493L208.317 0.0198763H207.353L185.773 38.373L90.8382 80.5614L90.7027 80.621L43.1753 165.117L0.0150597 184.294V185.148L43.6873 165.753L43.8078 165.673ZM67.5715 186.797L115.099 102.321L210.033 60.1329L210.154 60.0733L243.932 0.0198763H242.968L209.536 59.497L114.602 101.685L114.481 101.745L66.939 186.221L0.0150597 215.97V216.824L67.451 186.857L67.5715 186.797ZM79.4684 197.35L126.996 112.873L221.93 70.6849L222.051 70.6253L261.777 0.0198763H260.814L221.433 70.0689L126.484 112.257L126.363 112.317L78.8208 196.793L0 231.808V232.662L79.3178 197.409L79.4684 197.35ZM55.6896 176.225L103.217 91.7493L198.166 49.5609L198.287 49.5013L226.132 0.0198763H225.168L197.639 48.9449L102.72 91.1333L102.6 91.1929L55.0571 175.669L0.0150597 200.132V200.986L55.5691 176.305L55.6896 176.225ZM91.3503 207.921L138.878 123.445L233.812 81.2569L233.933 81.1973L279.608 0.039745H278.644L233.315 80.621L138.366 122.809L138.245 122.869L90.7027 207.345L0 247.646V248.5L91.1997 207.981L91.3503 207.921ZM60.1171 0.0198763H58.2045L19.532 17.2092L19.4116 17.2688L0.0150597 51.727V53.436L20.044 17.8252L60.1171 0.0198763ZM131.423 0.0198763H129.511L43.2957 38.3332L43.1753 38.3928L0.0150597 115.099V116.808L43.8078 38.9691L131.423 0.0198763ZM95.7626 0.0198763H93.8501L31.4139 27.7613L31.2934 27.8209L0.0150597 83.4229V85.1319L31.9259 28.3972L95.7626 0.0198763ZM103.097 218.533L103.217 218.474L150.744 133.997L245.679 91.809L245.799 91.7493L293.327 7.27318L309.636 0.0198763H307.724L292.83 6.63727L292.709 6.69689L245.182 91.173L150.248 133.361L150.127 133.421L102.585 217.917L7.65017 260.086L7.52969 260.145L0.0150597 273.499V275.208L8.16219 260.722L103.097 218.533ZM31.9259 155.121L79.4684 70.6253L174.403 28.4369L174.523 28.3773L190.486 0.0198763H189.522L173.876 27.8209L78.9564 70.0093L78.8359 70.0689L31.2934 154.545L0.0150597 168.436V169.29L31.8054 155.161L31.9259 155.121ZM138.757 250.209L138.878 250.15L186.405 165.673L281.34 123.485L281.46 123.425L328.987 38.9493L416.588 0.0198763H414.675L328.475 38.3134L328.355 38.373L280.827 122.849L185.893 165.038L185.773 165.097L138.245 249.593L43.3108 291.782L43.1903 291.841L0.030118 368.547V370.256L43.8228 292.417L138.757 250.209ZM114.978 229.085L115.099 229.026L162.626 144.549L257.561 102.361L257.681 102.301L305.209 17.8252L345.282 0.0198763H343.369L304.697 17.2092L304.576 17.2688L257.049 101.745L162.129 143.933L162.009 143.993L114.466 228.469L19.532 270.658L19.4116 270.717L0.0150597 305.195V306.904L20.044 271.293L114.978 229.085ZM126.86 239.657L126.996 239.598L174.538 155.121L269.473 112.933L269.593 112.873L317.121 28.3972L380.957 0.039745H379.045L316.609 27.7812L316.488 27.8408L268.961 112.317L174.026 154.505L173.906 154.565L126.363 239.021L31.4139 281.21L31.2934 281.269L0.0150597 336.851V338.56L31.9259 281.846L126.86 239.657ZM20.044 144.549L67.5715 60.0733L162.506 17.8849L162.626 17.8252L172.641 0.0198763H171.677L161.979 17.249L67.0745 59.4572L66.954 59.5168L19.4116 143.993L0.0150597 152.617V153.472L19.9236 144.629L20.044 144.549ZM55.6896 49.5212L150.639 7.33279L150.76 7.27318L154.841 0.0198763H153.877L150.127 6.69689L55.1776 48.8853L55.0571 48.9449L7.52969 133.421L0.0150597 136.76V137.614L8.16219 133.997L55.6896 49.5212ZM91.3503 461.35L138.878 376.874L233.812 334.685L233.933 334.626L281.475 250.15L376.409 207.961L376.53 207.902L424.057 123.425L519.007 81.237L519.127 81.1774L564.802 0.0198763H563.839L518.51 80.621L423.575 122.809L423.455 122.869L375.928 207.345L280.978 249.534L280.858 249.593L233.33 334.069L138.396 376.258L138.275 376.317L90.7027 460.794L0 501.094V501.949L91.1997 461.429L91.3503 461.35Z" fill="#00B1D2"/>
</svg>
